<svg width="103" height="20" viewBox="0 0 103 20" fill="none" xmlns="http://www.w3.org/2000/svg">
<g clip-path="url(#clip0_4501_515)">
<path d="M100.373 11.1999C100.374 11.1947 100.374 11.1896 100.374 11.1844C100.374 10.115 99.5036 9.24485 98.4341 9.24485H97.9047L100.226 3.64662C100.635 2.65881 100.164 1.522 99.1762 1.11248C98.1881 0.703243 97.0513 1.17415 96.6421 2.16223L95.1915 5.66413L93.741 2.16209C93.3316 1.17415 92.1948 0.703243 91.2069 1.11248C90.2189 1.52186 89.748 2.65854 90.1573 3.64649L91.4174 6.68888C91.2584 6.78281 91.114 6.89872 90.9882 7.03248C90.6342 6.6562 90.1324 6.4204 89.5762 6.42026C88.5067 6.42026 87.6367 7.29038 87.6367 8.3599V12.5964C87.6367 16.108 90.4936 18.9649 94.0052 18.9649C97.5167 18.9649 100.374 16.108 100.374 12.5964L100.373 11.1999ZM91.6106 2.08697C92.0612 1.90021 92.5798 2.11513 92.7665 2.56584L94.7042 7.24397C94.7859 7.44103 94.9782 7.56957 95.1915 7.56957C95.4048 7.56957 95.597 7.44103 95.6787 7.24397L97.6164 2.56584C97.8032 2.11513 98.3218 1.90021 98.7725 2.08684C99.2232 2.27374 99.438 2.7923 99.2513 3.24287L96.7628 9.24485H94.3399L94.34 8.3599C94.3399 7.30659 93.4956 6.44732 92.4483 6.4215L91.1318 3.24301C90.945 2.7923 91.1599 2.27374 91.6106 2.08697ZM92.4004 9.24485C92.0818 9.24485 91.7812 9.32258 91.5157 9.45936V8.3599C91.5157 7.87197 91.9126 7.47509 92.4004 7.47509C92.8883 7.47509 93.2852 7.87211 93.2854 8.3599L93.2852 9.24485H92.4004ZM88.6914 8.3599C88.6914 7.87197 89.0883 7.47495 89.5761 7.47495C90.064 7.47509 90.4609 7.87211 90.461 8.3599V11.1842C90.4609 11.672 90.064 12.0689 89.5762 12.0689C89.0884 12.0689 88.6914 11.672 88.6914 11.1842V8.3599ZM94.0052 17.9102C91.182 17.9102 88.8662 15.6969 88.7013 12.9143C88.9643 13.0478 89.2615 13.1237 89.5762 13.1237C90.1324 13.1237 90.6343 12.8879 90.9884 12.5115C91.3424 12.8879 91.8442 13.1237 92.4005 13.1237H97.0219C97.3132 13.1237 97.5493 12.8877 97.5493 12.5964C97.5493 12.3052 97.3132 12.069 97.0219 12.069H92.4005C91.9127 12.069 91.5157 11.672 91.5157 11.1842C91.5159 10.6964 91.9127 10.2995 92.4005 10.2995H93.8124C93.8126 10.2995 93.8126 10.2995 93.8126 10.2995H93.8127C93.8127 10.2995 93.8127 10.2995 93.8128 10.2995H97.1123C97.1131 10.2995 97.1141 10.2997 97.1149 10.2997C97.1162 10.2997 97.1173 10.2995 97.1185 10.2995H98.4341C98.9201 10.2995 99.3158 10.6931 99.3191 11.1783C99.3189 11.1831 99.3189 11.1881 99.3189 11.193V12.5964C99.3189 15.5264 96.9352 17.9102 94.0052 17.9102Z" fill="#FFBC33"/>
</g>
<path d="M5.408 11.6L3.904 13.168V16H1.328V4.8H3.904V10.032L8.864 4.8H11.744L7.104 9.792L12.016 16H8.992L5.408 11.6ZM14.1195 7.392H16.6155V16H14.1195V7.392ZM15.3675 6.192C14.9088 6.192 14.5355 6.05867 14.2475 5.792C13.9595 5.52533 13.8155 5.19467 13.8155 4.8C13.8155 4.40533 13.9595 4.07467 14.2475 3.808C14.5355 3.54133 14.9088 3.408 15.3675 3.408C15.8262 3.408 16.1995 3.536 16.4875 3.792C16.7755 4.048 16.9195 4.368 16.9195 4.752C16.9195 5.168 16.7755 5.51467 16.4875 5.792C16.1995 6.05867 15.8262 6.192 15.3675 6.192ZM28.98 4.128V16H26.596V15.008C25.9773 15.7547 25.0813 16.128 23.908 16.128C23.0973 16.128 22.3613 15.9467 21.7 15.584C21.0493 15.2213 20.5373 14.704 20.164 14.032C19.7907 13.36 19.604 12.5813 19.604 11.696C19.604 10.8107 19.7907 10.032 20.164 9.36C20.5373 8.688 21.0493 8.17067 21.7 7.808C22.3613 7.44533 23.0973 7.264 23.908 7.264C25.0067 7.264 25.8653 7.61067 26.484 8.304V4.128H28.98ZM24.34 14.08C24.9693 14.08 25.492 13.8667 25.908 13.44C26.324 13.0027 26.532 12.4213 26.532 11.696C26.532 10.9707 26.324 10.3947 25.908 9.968C25.492 9.53067 24.9693 9.312 24.34 9.312C23.7 9.312 23.172 9.53067 22.756 9.968C22.34 10.3947 22.132 10.9707 22.132 11.696C22.132 12.4213 22.34 13.0027 22.756 13.44C23.172 13.8667 23.7 14.08 24.34 14.08ZM35.4661 16.128C34.7515 16.128 34.0528 16.0427 33.3701 15.872C32.6875 15.6907 32.1435 15.4667 31.7381 15.2L32.5701 13.408C32.9541 13.6533 33.4181 13.856 33.9621 14.016C34.5061 14.1653 35.0395 14.24 35.5621 14.24C36.6181 14.24 37.1461 13.9787 37.1461 13.456C37.1461 13.2107 37.0021 13.0347 36.7141 12.928C36.4261 12.8213 35.9835 12.7307 35.3861 12.656C34.6821 12.5493 34.1008 12.4267 33.6421 12.288C33.1835 12.1493 32.7835 11.904 32.4421 11.552C32.1115 11.2 31.9461 10.6987 31.9461 10.048C31.9461 9.504 32.1008 9.024 32.4101 8.608C32.7301 8.18133 33.1888 7.85067 33.7861 7.616C34.3941 7.38133 35.1088 7.264 35.9301 7.264C36.5381 7.264 37.1408 7.33333 37.7381 7.472C38.3461 7.6 38.8475 7.78133 39.2421 8.016L38.4101 9.792C37.6528 9.36533 36.8261 9.152 35.9301 9.152C35.3968 9.152 34.9968 9.22667 34.7301 9.376C34.4635 9.52533 34.3301 9.71733 34.3301 9.952C34.3301 10.2187 34.4741 10.4053 34.7621 10.512C35.0501 10.6187 35.5088 10.72 36.1381 10.816C36.8421 10.9333 37.4181 11.0613 37.8661 11.2C38.3141 11.328 38.7035 11.568 39.0341 11.92C39.3648 12.272 39.5301 12.7627 39.5301 13.392C39.5301 13.9253 39.3701 14.4 39.0501 14.816C38.7301 15.232 38.2608 15.5573 37.6421 15.792C37.0341 16.016 36.3088 16.128 35.4661 16.128ZM42.5261 4.8H45.1181V13.888H50.7341V16H42.5261V4.8ZM53.2864 7.392H55.7824V16H53.2864V7.392ZM54.5344 6.192C54.0757 6.192 53.7024 6.05867 53.4144 5.792C53.1264 5.52533 52.9824 5.19467 52.9824 4.8C52.9824 4.40533 53.1264 4.07467 53.4144 3.808C53.7024 3.54133 54.0757 3.408 54.5344 3.408C54.993 3.408 55.3664 3.536 55.6544 3.792C55.9424 4.048 56.0864 4.368 56.0864 4.752C56.0864 5.168 55.9424 5.51467 55.6544 5.792C55.3664 6.05867 54.993 6.192 54.5344 6.192ZM63.0749 12.624L61.8749 13.808V16H59.3789V4.128H61.8749V10.848L65.5229 7.392H68.4989L64.9149 11.04L68.8189 16H65.7949L63.0749 12.624ZM79.2784 11.728C79.2784 11.76 79.2624 11.984 79.2304 12.4H72.7184C72.8357 12.9333 73.113 13.3547 73.5504 13.664C73.9877 13.9733 74.5317 14.128 75.1824 14.128C75.6304 14.128 76.025 14.064 76.3664 13.936C76.7184 13.7973 77.0437 13.584 77.3424 13.296L78.6704 14.736C77.8597 15.664 76.6757 16.128 75.1184 16.128C74.1477 16.128 73.289 15.9413 72.5424 15.568C71.7957 15.184 71.2197 14.656 70.8144 13.984C70.409 13.312 70.2064 12.5493 70.2064 11.696C70.2064 10.8533 70.4037 10.096 70.7984 9.424C71.2037 8.74133 71.753 8.21333 72.4464 7.84C73.1504 7.456 73.9344 7.264 74.7984 7.264C75.641 7.264 76.4037 7.44533 77.0864 7.808C77.769 8.17067 78.3024 8.69333 78.6864 9.376C79.081 10.048 79.2784 10.832 79.2784 11.728ZM74.8144 9.152C74.249 9.152 73.7744 9.312 73.3904 9.632C73.0064 9.952 72.7717 10.3893 72.6864 10.944H76.9264C76.841 10.4 76.6064 9.968 76.2224 9.648C75.8384 9.31733 75.369 9.152 74.8144 9.152Z" fill="black"/>
<defs>
<clipPath id="clip0_4501_515">
<rect width="18" height="18" fill="white" transform="translate(85 1)"/>
</clipPath>
</defs>
</svg>
