<svg width="34" height="34" viewBox="0 0 34 34" fill="none" xmlns="http://www.w3.org/2000/svg">
<g filter="url(#filter0_d_10_1541)">
<circle cx="17" cy="16" r="15" fill="white"/>
<path d="M12.3491 20.144C11.4771 20.144 10.6891 19.956 9.98511 19.58C9.28911 19.204 8.74111 18.688 8.34111 18.032C7.94911 17.368 7.75311 16.624 7.75311 15.8C7.75311 14.976 7.94911 14.236 8.34111 13.58C8.74111 12.916 9.28911 12.396 9.98511 12.02C10.6891 11.644 11.4771 11.456 12.3491 11.456C13.2211 11.456 14.0051 11.644 14.7011 12.02C15.3971 12.396 15.9451 12.916 16.3451 13.58C16.7451 14.236 16.9451 14.976 16.9451 15.8C16.9451 16.624 16.7451 17.368 16.3451 18.032C15.9451 18.688 15.3971 19.204 14.7011 19.58C14.0051 19.956 13.2211 20.144 12.3491 20.144ZM12.3491 18.488C12.8451 18.488 13.2931 18.376 13.6931 18.152C14.0931 17.92 14.4051 17.6 14.6291 17.192C14.8611 16.784 14.9771 16.32 14.9771 15.8C14.9771 15.28 14.8611 14.816 14.6291 14.408C14.4051 14 14.0931 13.684 13.6931 13.46C13.2931 13.228 12.8451 13.112 12.3491 13.112C11.8531 13.112 11.4051 13.228 11.0051 13.46C10.6051 13.684 10.2891 14 10.0571 14.408C9.83311 14.816 9.72111 15.28 9.72111 15.8C9.72111 16.32 9.83311 16.784 10.0571 17.192C10.2891 17.6 10.6051 17.92 11.0051 18.152C11.4051 18.376 11.8531 18.488 12.3491 18.488ZM22.1747 16.616H20.8307V20H18.8987V11.6H20.8307V14.996H22.2227L24.4307 11.6H26.4827L23.7347 15.656L26.5667 20H24.3587L22.1747 16.616Z" fill="#8EC63F"/>
</g>
<defs>
<filter id="filter0_d_10_1541" x="0" y="0" width="34" height="34" filterUnits="userSpaceOnUse" color-interpolation-filters="sRGB">
<feFlood flood-opacity="0" result="BackgroundImageFix"/>
<feColorMatrix in="SourceAlpha" type="matrix" values="0 0 0 0 0 0 0 0 0 0 0 0 0 0 0 0 0 0 127 0" result="hardAlpha"/>
<feOffset dy="1"/>
<feGaussianBlur stdDeviation="1"/>
<feColorMatrix type="matrix" values="0 0 0 0 0 0 0 0 0 0 0 0 0 0 0 0 0 0 0.15 0"/>
<feBlend mode="normal" in2="BackgroundImageFix" result="effect1_dropShadow_10_1541"/>
<feBlend mode="normal" in="SourceGraphic" in2="effect1_dropShadow_10_1541" result="shape"/>
</filter>
</defs>
</svg>
