<svg width="26" height="26" viewBox="0 0 26 26" fill="none" xmlns="http://www.w3.org/2000/svg">
<g clip-path="url(#clip0_10_471)">
<path d="M14.516 15.5654V26.0002H23.1001C24.2158 26.0002 25.1206 25.0958 25.1206 23.9795V15.5654H14.516Z" fill="#FFBC33"/>
<path d="M11.4809 15.5654H0.880005V23.9795C0.880005 25.0958 1.78511 26.0002 2.90066 26.0002H11.4809V15.5654ZM3.63474 23.8797C3.21582 23.8797 2.87595 23.5398 2.87595 23.121V18.9109C2.87595 18.492 3.21589 18.1521 3.63474 18.1521C4.05359 18.1521 4.39352 18.4921 4.39352 18.9109V23.121C4.39352 23.5398 4.05365 23.8797 3.63474 23.8797Z" fill="#FFBC33"/>
<path d="M23.7573 7.65276H19.9623C20.4861 7.40134 20.9255 7.14161 21.1912 6.87618C22.7544 5.31323 22.7544 2.7779 21.1912 1.2147C20.4086 0.433189 19.3841 0.0424997 18.3596 0.0424997C17.335 0.0424997 16.3102 0.433189 15.5287 1.2147C14.8796 1.86397 14.2552 3.46654 13.7454 5.11795C13.5073 5.0526 13.2622 5.00683 13.0044 5.00683C12.7475 5.00683 12.5023 5.05266 12.2653 5.1175C11.7535 3.45118 11.1232 1.82685 10.4681 1.17213C9.68649 0.390626 8.66292 0 7.63729 0C6.61269 0 5.58809 0.39069 4.80652 1.17213C3.24338 2.73592 3.24338 5.27073 4.80652 6.83361C5.08616 7.11447 5.5573 7.38912 6.1226 7.65276H2.24265C1.12703 7.65276 0.223083 8.55703 0.223083 9.67251V11.3912C0.223083 12.5068 1.12703 13.4106 2.24265 13.4106H11.4809V7.73289H14.516V13.4106H23.7574C24.8729 13.4106 25.777 12.5067 25.777 11.3911V9.67245C25.7769 8.55703 24.8728 7.65276 23.7573 7.65276ZM16.9596 2.64548C17.333 2.27181 17.8309 2.06578 18.3596 2.06578C18.8891 2.06578 19.3862 2.27181 19.7608 2.64548C20.1342 3.01933 20.3397 3.5164 20.3397 4.04547C20.3397 4.57454 20.1342 5.07154 19.7626 5.44303C19.3446 5.83737 17.7076 6.45176 15.6839 7.02403C15.6267 6.82779 15.5494 6.64211 15.4517 6.46616C16.0031 4.5618 16.5821 3.04455 16.9596 2.64548ZM6.23723 2.60298C6.61077 2.22957 7.10867 2.02353 7.63735 2.02353C8.16687 2.02353 8.66394 2.22906 9.03632 2.60195C9.41684 3.00461 10.0027 4.54151 10.5579 6.46565C10.466 6.63059 10.393 6.80462 10.3356 6.9878C8.30231 6.41483 6.65519 5.7973 6.23717 5.40315C5.46552 4.63099 5.46552 3.37514 6.23723 2.60298Z" fill="#FFBC33"/>
</g>
<defs>
<clipPath id="clip0_10_471">
<rect width="26" height="26" fill="white"/>
</clipPath>
</defs>
</svg>
