<svg width="18" height="18" viewBox="0 0 18 18" fill="none" xmlns="http://www.w3.org/2000/svg">
<g clip-path="url(#clip0_4501_516)">
<path d="M15.3735 10.1999C15.3736 10.1947 15.3737 10.1896 15.3737 10.1844C15.3737 9.11497 14.5036 8.24485 13.4341 8.24485H12.9047L15.2258 2.64662C15.6349 1.65881 15.1642 0.522 14.1762 0.112484C13.1881 -0.296757 12.0513 0.174145 11.6421 1.16223L10.1915 4.66413L8.74101 1.16209C8.33163 0.174145 7.19482 -0.296757 6.20687 0.112484C5.21892 0.521863 4.74802 1.65854 5.15726 2.64649L6.4174 5.68888C6.25837 5.78281 6.11404 5.89872 5.98824 6.03248C5.63421 5.6562 5.13241 5.4204 4.57622 5.42026C3.5067 5.42026 2.63672 6.29038 2.63672 7.3599V11.5964C2.63672 15.108 5.49358 17.9649 9.00523 17.9649C12.5167 17.9649 15.3736 15.108 15.3736 11.5964L15.3735 10.1999ZM6.61062 1.08697C7.0612 0.900205 7.57975 1.11513 7.76652 1.56584L9.70424 6.24397C9.78595 6.44103 9.97821 6.56957 10.1915 6.56957C10.4048 6.56957 10.597 6.44103 10.6787 6.24397L12.6164 1.56584C12.8032 1.11513 13.3218 0.900205 13.7725 1.08684C14.2232 1.27374 14.438 1.7923 14.2513 2.24287L11.7628 8.24485H9.3399L9.34004 7.3599C9.3399 6.30659 8.4956 5.44732 7.44833 5.4215L6.13175 2.24301C5.94498 1.7923 6.1599 1.27374 6.61062 1.08697ZM7.4004 8.24485C7.0818 8.24485 6.78118 8.32258 6.51572 8.45936V7.3599C6.51572 6.87197 6.91261 6.47509 7.4004 6.47509C7.88833 6.47509 8.28521 6.87211 8.28535 7.3599L8.28521 8.24485H7.4004ZM3.69141 7.3599C3.69141 6.87197 4.08829 6.47495 4.57608 6.47495C5.06402 6.47509 5.4609 6.87211 5.46103 7.3599V10.1842C5.4609 10.672 5.06402 11.0689 4.57622 11.0689C4.08843 11.0689 3.69141 10.672 3.69141 10.1842V7.3599ZM9.00523 16.9102C6.18201 16.9102 3.86623 14.6969 3.7013 11.9143C3.96428 12.0478 4.26146 12.1237 4.57622 12.1237C5.13241 12.1237 5.63434 11.8879 5.98838 11.5115C6.34241 11.8879 6.84422 12.1237 7.40054 12.1237H12.0219C12.3132 12.1237 12.5493 11.8877 12.5493 11.5964C12.5493 11.3052 12.3132 11.069 12.0219 11.069H7.40054C6.91274 11.069 6.51572 10.672 6.51572 10.1842C6.51586 9.69643 6.91274 9.29955 7.40054 9.29955H8.81242C8.81256 9.29955 8.81256 9.29955 8.81256 9.29955H8.8127C8.8127 9.29955 8.8127 9.29955 8.81283 9.29955H12.1123C12.1131 9.29955 12.1141 9.29968 12.1149 9.29968C12.1162 9.29968 12.1173 9.29955 12.1185 9.29955H13.4341C13.9201 9.29955 14.3158 9.69313 14.3191 10.1783C14.3189 10.1831 14.3189 10.1881 14.3189 10.193V11.5964C14.3189 14.5264 11.9352 16.9102 9.00523 16.9102Z" fill="#FFBC33"/>
</g>
<defs>
<clipPath id="clip0_4501_516">
<rect width="18" height="18" fill="white"/>
</clipPath>
</defs>
</svg>
