<svg width="64" height="12" viewBox="0 0 64 12" fill="none" xmlns="http://www.w3.org/2000/svg">
<g clip-path="url(#clip0_4501_507)">
<path d="M62.249 6.79992C62.2491 6.79644 62.2492 6.79305 62.2492 6.78957C62.2492 6.07665 61.6691 5.49657 60.9561 5.49657H60.6031L62.1506 1.76442C62.4233 1.10588 62.1095 0.348 61.4508 0.0749895C60.7921 -0.197838 60.0342 0.116097 59.7614 0.77482L58.7943 3.10942L57.8273 0.774728C57.5544 0.116097 56.7965 -0.197838 56.1379 0.0749895C55.4793 0.347909 55.1653 1.10569 55.4382 1.76432L56.2783 3.79259C56.1722 3.85521 56.076 3.93248 55.9922 4.02165C55.7561 3.7708 55.4216 3.6136 55.0508 3.61351C54.3378 3.61351 53.7578 4.19359 53.7578 4.9066V7.73092C53.7578 10.072 55.6624 11.9766 58.0035 11.9766C60.3445 11.9766 62.2491 10.072 62.2491 7.73092L62.249 6.79992ZM56.4071 0.724649C56.7075 0.600137 57.0532 0.743417 57.1777 1.04389L58.4695 4.16264C58.524 4.29402 58.6521 4.37972 58.7943 4.37972C58.9365 4.37972 59.0647 4.29402 59.1192 4.16264L60.411 1.04389C60.5355 0.743417 60.8812 0.600137 61.1817 0.724557C61.4821 0.849161 61.6253 1.19486 61.5009 1.49525L59.8419 5.49657H58.2266L58.2267 4.9066C58.2266 4.20439 57.6637 3.63155 56.9656 3.61433L56.0878 1.49534C55.9633 1.19486 56.1066 0.849161 56.4071 0.724649ZM56.9336 5.49657C56.7212 5.49657 56.5208 5.54839 56.3438 5.63958V4.9066C56.3438 4.58132 56.6084 4.31673 56.9336 4.31673C57.2589 4.31673 57.5235 4.58141 57.5236 4.9066L57.5235 5.49657H56.9336ZM54.4609 4.9066C54.4609 4.58132 54.7255 4.31664 55.0507 4.31664C55.376 4.31673 55.6406 4.58141 55.6407 4.9066V6.78948C55.6406 7.11468 55.376 7.37926 55.0508 7.37926C54.7256 7.37926 54.4609 7.11468 54.4609 6.78948V4.9066ZM58.0035 11.2735C56.1213 11.2735 54.5775 9.79791 54.4675 7.94286C54.6429 8.03185 54.841 8.08248 55.0508 8.08248C55.4216 8.08248 55.7562 7.92529 55.9923 7.67434C56.2283 7.92529 56.5628 8.08248 56.9337 8.08248H60.0146C60.2088 8.08248 60.3662 7.9251 60.3662 7.73092C60.3662 7.53683 60.2088 7.37936 60.0146 7.37936H56.9337C56.6085 7.37936 56.3438 7.11468 56.3438 6.78948C56.3439 6.46428 56.6085 6.1997 56.9337 6.1997H57.8749C57.875 6.1997 57.875 6.1997 57.875 6.1997H57.8751C57.8751 6.1997 57.8751 6.1997 57.8752 6.1997H60.0749C60.0754 6.1997 60.0761 6.19979 60.0766 6.19979C60.0774 6.19979 60.0782 6.1997 60.079 6.1997H60.9561C61.2801 6.1997 61.5438 6.46209 61.546 6.78554C61.5459 6.78875 61.5459 6.79204 61.5459 6.79534V7.73092C61.5459 9.68429 59.9568 11.2735 58.0035 11.2735Z" fill="#FFBC33"/>
</g>
<path d="M3.31 6.71L1.88 8.16V10H1.14V3H1.88V7.23L5.99 3H6.84L3.81 6.17L7.05 10H6.17L3.31 6.71ZM8.80172 4.74H9.51172V10H8.80172V4.74ZM9.16172 3.59C9.01505 3.59 8.89172 3.54 8.79172 3.44C8.69172 3.34 8.64172 3.22 8.64172 3.08C8.64172 2.94667 8.69172 2.83 8.79172 2.73C8.89172 2.63 9.01505 2.58 9.16172 2.58C9.30839 2.58 9.43172 2.63 9.53172 2.73C9.63172 2.82333 9.68172 2.93667 9.68172 3.07C9.68172 3.21667 9.63172 3.34 9.53172 3.44C9.43172 3.54 9.30839 3.59 9.16172 3.59ZM17.0873 2.58V10H16.4073V8.96C16.1939 9.31333 15.9106 9.58333 15.5573 9.77C15.2106 9.95667 14.8173 10.05 14.3773 10.05C13.8839 10.05 13.4373 9.93667 13.0373 9.71C12.6373 9.48333 12.3239 9.16667 12.0973 8.76C11.8706 8.35333 11.7573 7.89 11.7573 7.37C11.7573 6.85 11.8706 6.38667 12.0973 5.98C12.3239 5.57333 12.6373 5.26 13.0373 5.04C13.4373 4.81333 13.8839 4.7 14.3773 4.7C14.8039 4.7 15.1873 4.79 15.5273 4.97C15.8739 5.14333 16.1573 5.4 16.3773 5.74V2.58H17.0873ZM14.4373 9.42C14.8039 9.42 15.1339 9.33667 15.4273 9.17C15.7273 8.99667 15.9606 8.75333 16.1273 8.44C16.3006 8.12667 16.3873 7.77 16.3873 7.37C16.3873 6.97 16.3006 6.61333 16.1273 6.3C15.9606 5.98667 15.7273 5.74667 15.4273 5.58C15.1339 5.40667 14.8039 5.32 14.4373 5.32C14.0639 5.32 13.7273 5.40667 13.4273 5.58C13.1339 5.74667 12.9006 5.98667 12.7273 6.3C12.5606 6.61333 12.4773 6.97 12.4773 7.37C12.4773 7.77 12.5606 8.12667 12.7273 8.44C12.9006 8.75333 13.1339 8.99667 13.4273 9.17C13.7273 9.33667 14.0639 9.42 14.4373 9.42ZM21.2746 10.05C20.8479 10.05 20.4379 9.99 20.0446 9.87C19.6579 9.74333 19.3546 9.58667 19.1346 9.4L19.4546 8.84C19.6746 9.01333 19.9513 9.15667 20.2846 9.27C20.6179 9.37667 20.9646 9.43 21.3246 9.43C21.8046 9.43 22.1579 9.35667 22.3846 9.21C22.6179 9.05667 22.7346 8.84333 22.7346 8.57C22.7346 8.37667 22.6713 8.22667 22.5446 8.12C22.4179 8.00667 22.2579 7.92333 22.0646 7.87C21.8713 7.81 21.6146 7.75333 21.2946 7.7C20.8679 7.62 20.5246 7.54 20.2646 7.46C20.0046 7.37333 19.7813 7.23 19.5946 7.03C19.4146 6.83 19.3246 6.55333 19.3246 6.2C19.3246 5.76 19.5079 5.4 19.8746 5.12C20.2413 4.84 20.7513 4.7 21.4046 4.7C21.7446 4.7 22.0846 4.74667 22.4246 4.84C22.7646 4.92667 23.0446 5.04333 23.2646 5.19L22.9546 5.76C22.5213 5.46 22.0046 5.31 21.4046 5.31C20.9513 5.31 20.6079 5.39 20.3746 5.55C20.1479 5.71 20.0346 5.92 20.0346 6.18C20.0346 6.38 20.0979 6.54 20.2246 6.66C20.3579 6.78 20.5213 6.87 20.7146 6.93C20.9079 6.98333 21.1746 7.04 21.5146 7.1C21.9346 7.18 22.2713 7.26 22.5246 7.34C22.7779 7.42 22.9946 7.55667 23.1746 7.75C23.3546 7.94333 23.4446 8.21 23.4446 8.55C23.4446 9.01 23.2513 9.37667 22.8646 9.65C22.4846 9.91667 21.9546 10.05 21.2746 10.05ZM25.7072 3H26.4472V9.36H30.3672V10H25.7072V3ZM32.2459 4.74H32.9559V10H32.2459V4.74ZM32.6059 3.59C32.4592 3.59 32.3359 3.54 32.2359 3.44C32.1359 3.34 32.0859 3.22 32.0859 3.08C32.0859 2.94667 32.1359 2.83 32.2359 2.73C32.3359 2.63 32.4592 2.58 32.6059 2.58C32.7525 2.58 32.8759 2.63 32.9759 2.73C33.0759 2.82333 33.1259 2.93667 33.1259 3.07C33.1259 3.21667 33.0759 3.34 32.9759 3.44C32.8759 3.54 32.7525 3.59 32.6059 3.59ZM37.6814 7.36L36.4414 8.5V10H35.7314V2.58H36.4414V7.61L39.5814 4.74H40.4614L38.2114 6.89L40.6714 10H39.8014L37.6814 7.36ZM46.9024 7.59H42.5024C42.5424 8.13667 42.7524 8.58 43.1324 8.92C43.5124 9.25333 43.9924 9.42 44.5724 9.42C44.8991 9.42 45.1991 9.36333 45.4724 9.25C45.7458 9.13 45.9824 8.95667 46.1824 8.73L46.5824 9.19C46.3491 9.47 46.0558 9.68333 45.7024 9.83C45.3558 9.97667 44.9724 10.05 44.5524 10.05C44.0124 10.05 43.5324 9.93667 43.1124 9.71C42.6991 9.47667 42.3758 9.15667 42.1424 8.75C41.9091 8.34333 41.7924 7.88333 41.7924 7.37C41.7924 6.85667 41.9024 6.39667 42.1224 5.99C42.3491 5.58333 42.6558 5.26667 43.0424 5.04C43.4358 4.81333 43.8758 4.7 44.3624 4.7C44.8491 4.7 45.2858 4.81333 45.6724 5.04C46.0591 5.26667 46.3624 5.58333 46.5824 5.99C46.8024 6.39 46.9124 6.85 46.9124 7.37L46.9024 7.59ZM44.3624 5.31C43.8558 5.31 43.4291 5.47333 43.0824 5.8C42.7424 6.12 42.5491 6.54 42.5024 7.06H46.2324C46.1858 6.54 45.9891 6.12 45.6424 5.8C45.3024 5.47333 44.8758 5.31 44.3624 5.31Z" fill="#858598"/>
<defs>
<clipPath id="clip0_4501_507">
<rect width="12" height="12" fill="white" transform="translate(52)"/>
</clipPath>
</defs>
</svg>
