<!-- Generated by IcoMoon.io -->
<svg version="1.1" xmlns="http://www.w3.org/2000/svg" width="448" height="448" viewBox="0 0 448 448">
<title></title>
<g id="icomoon-ignore">
</g>
<path d="M297.25 326.75l36.75-173.25c3.25-15.25-5.5-21.25-15.5-17.5l-216 83.25c-14.75 5.75-14.5 14-2.5 17.75l55.25 17.25 128.25-80.75c6-4 11.5-1.75 7 2.25l-103.75 93.75-4 57c5.75 0 8.25-2.5 11.25-5.5l27-26 56 41.25c10.25 5.75 17.5 2.75 20.25-9.5zM448 224c0 123.75-100.25 224-224 224s-224-100.25-224-224 100.25-224 224-224 224 100.25 224 224z"></path>
</svg>
