<svg width="20" height="10" fill="none" xmlns="http://www.w3.org/2000/svg"><path d="M5.35 9.144c-.873 0-1.66-.188-2.365-.564a4.255 4.255 0 0 1-1.644-1.548C.95 6.368.753 5.624.753 4.8c0-.824.196-1.564.588-2.22.4-.664.948-1.184 1.644-1.56C3.69.644 4.477.456 5.35.456c.872 0 1.656.188 2.352.564a4.226 4.226 0 0 1 1.644 1.56c.4.656.6 1.396.6 2.22 0 .824-.2 1.568-.6 2.232A4.255 4.255 0 0 1 7.701 8.58c-.696.376-1.48.564-2.352.564Zm0-1.656c.495 0 .943-.112 1.343-.336.4-.232.712-.552.936-.96.232-.408.348-.872.348-1.392 0-.52-.116-.984-.348-1.392a2.372 2.372 0 0 0-.936-.948 2.63 2.63 0 0 0-1.344-.348 2.63 2.63 0 0 0-1.344.348c-.4.224-.716.54-.948.948A2.844 2.844 0 0 0 2.721 4.8c0 .52.112.984.336 1.392.232.408.548.728.948.96.4.224.848.336 1.344.336Zm9.825-1.872H13.83V9h-1.932V.6h1.932v3.396h1.392L17.43.6h2.052l-2.748 4.056L19.567 9h-2.208l-2.184-3.384Z" fill="#8EC63F"/></svg>