<svg width="28" height="28" viewBox="0 0 28 28" fill="none" xmlns="http://www.w3.org/2000/svg">
<circle cx="14" cy="14" r="14" fill="#FE4B64"/>
<path d="M12.5195 8.4001H15.4955L14.9995 15.7121H13.0155L12.5195 8.4001ZM14.0075 19.7281C13.5701 19.7281 13.2021 19.5894 12.9035 19.3121C12.6155 19.0241 12.4715 18.6774 12.4715 18.2721C12.4715 17.8668 12.6155 17.5308 12.9035 17.2641C13.1915 16.9868 13.5595 16.8481 14.0075 16.8481C14.4555 16.8481 14.8235 16.9868 15.1115 17.2641C15.3995 17.5308 15.5435 17.8668 15.5435 18.2721C15.5435 18.6774 15.3941 19.0241 15.0955 19.3121C14.8075 19.5894 14.4448 19.7281 14.0075 19.7281Z" fill="white"/>
</svg>
