<svg width="20" height="20" viewBox="0 0 20 20" fill="none" xmlns="http://www.w3.org/2000/svg">
<g clip-path="url(#clip0_4505_3105)">
<path d="M10.1282 8.1875C9.00155 8.1875 8.08813 9.10087 8.08813 10.2276C8.08813 11.3543 9.0015 12.2677 10.1282 12.2677C11.2549 12.2677 12.1684 11.3544 12.1684 10.2276C12.1684 9.10087 11.255 8.1875 10.1282 8.1875ZM10.1282 11.2962C9.53805 11.2962 9.05961 10.8178 9.05961 10.2276C9.05961 9.63738 9.53805 9.15893 10.1282 9.15893C10.7184 9.15893 11.1969 9.63738 11.1969 10.2276C11.1969 10.8178 10.7184 11.2962 10.1282 11.2962Z" fill="black"/>
<path d="M18.2645 3.5239L5.0038 2.01814C4.48914 1.94497 3.9677 2.09522 3.57089 2.43104C3.17413 2.73869 2.9198 3.19472 2.86657 3.69394L2.62372 5.68548H1.87077C0.802135 5.68548 0.000656343 6.63265 0.000656343 7.70129V17.6346C-0.0262595 18.6537 0.778009 19.5016 1.79709 19.5285C1.82164 19.5292 1.84623 19.5293 1.87077 19.529H15.2043C16.2729 19.529 17.2444 18.7033 17.2444 17.6346V17.246C17.5757 17.182 17.89 17.0497 18.1673 16.8575C18.5608 16.5262 18.8128 16.057 18.8717 15.546L19.9889 5.68548C20.1028 4.61438 19.3341 3.65085 18.2645 3.5239ZM16.2729 17.6346C16.2729 18.1689 15.7386 18.5575 15.2043 18.5575H1.87077C1.3881 18.5717 0.98534 18.1919 0.971162 17.7092C0.970418 17.6844 0.970743 17.6595 0.972138 17.6346V15.8374L4.73664 13.0687C5.18886 12.7215 5.82583 12.7524 6.24244 13.1415L8.88973 15.4731C9.29174 15.8106 9.7978 15.9993 10.3227 16.0074C10.7331 16.0124 11.1367 15.9031 11.4885 15.6917L16.273 12.923V17.6346H16.2729ZM16.2729 11.7815L10.9784 14.8659C10.5237 15.1353 9.94828 15.0865 9.54542 14.7445L6.87387 12.3886C6.10819 11.7307 4.98906 11.6904 4.17801 12.2915L0.972138 14.623V7.70129C0.972138 7.16697 1.33645 6.65696 1.87077 6.65696H15.2043C15.7752 6.68063 16.2362 7.13118 16.2729 7.70129V11.7815ZM19.0183 5.55434C19.018 5.55755 19.0177 5.56081 19.0173 5.56401L17.8759 15.4245C17.8778 15.6802 17.7612 15.9223 17.5601 16.0803C17.463 16.1774 17.2444 16.226 17.2444 16.2746V7.70129C17.206 6.59486 16.3111 5.71054 15.2043 5.68548H3.59516L3.81374 3.7911C3.86115 3.54579 3.98941 3.32349 4.17805 3.15963C4.39106 3.01236 4.64859 2.94369 4.90669 2.96531L18.1431 4.49538C18.6772 4.54609 19.069 5.02021 19.0183 5.55434Z" fill="black"/>
</g>
<defs>
<clipPath id="clip0_4505_3105">
<rect width="20" height="20" fill="white"/>
</clipPath>
</defs>
</svg>
